<?xml version="1.0" encoding="UTF-8"?>
<svg id="Layer_2" data-name="Layer 2" xmlns="http://www.w3.org/2000/svg" viewBox="0 0 539.85 287.21">
  <defs>
    <style>
      .cls-1, .cls-2, .cls-3 {
        fill: #ef4889;
      }

      .cls-2 {
        stroke-width: 1.42px;
      }

      .cls-2, .cls-3 {
        stroke: #ef4889;
        stroke-miterlimit: 10;
      }

      .cls-3 {
        stroke-width: .73px;
      }
    </style>
  </defs>
  <g id="Layer_1-2" data-name="Layer 1">
    <g>
      <path class="cls-2" d="M97.17,114.61c0-.64.2-1.16.61-1.57.41-.41.93-.61,1.57-.61h15.79c1.74,0,3.34.32,4.8.96,1.45.64,2.7,1.53,3.75,2.66,1.05,1.14,1.86,2.49,2.44,4.06.58,1.57.87,3.26.87,5.06v28.18c0,.99-.34,1.82-1,2.49-.67.67-1.5,1-2.48,1h-16.31c-1.75,0-3.39-.32-4.93-.96-1.54-.64-2.88-1.53-4.01-2.66-1.13-1.13-2.02-2.45-2.66-3.97-.64-1.51-.96-3.14-.96-4.88s.32-3.37.96-4.89c.64-1.51,1.53-2.83,2.66-3.97,1.14-1.14,2.47-2.04,4.01-2.71,1.54-.67,3.18-1,4.93-1h15.18v-6.37c0-2.44-.64-4.49-1.92-6.15-1.28-1.66-3.05-2.48-5.32-2.48h-15.62c-1.57,0-2.36-.73-2.36-2.18M122.38,152.29v-16.05h-15.18c-1.11,0-2.15.22-3.14.65-.99.44-1.85,1.02-2.57,1.75-.73.73-1.3,1.59-1.7,2.57-.41.99-.61,2.04-.61,3.14s.2,2.14.61,3.1c.41.96.97,1.8,1.7,2.53.72.73,1.58,1.3,2.57,1.7.99.41,2.04.61,3.14.61h15.18Z"/>
      <path class="cls-3" d="M97.17,114.61c0-.64.2-1.16.61-1.57.41-.41.93-.61,1.57-.61h15.79c1.74,0,3.34.32,4.8.96,1.45.64,2.7,1.53,3.75,2.66,1.05,1.14,1.86,2.49,2.44,4.06.58,1.57.87,3.26.87,5.06v28.18c0,.99-.34,1.82-1,2.49-.67.67-1.5,1-2.48,1h-16.31c-1.75,0-3.39-.32-4.93-.96-1.54-.64-2.88-1.53-4.01-2.66-1.13-1.13-2.02-2.45-2.66-3.97-.64-1.51-.96-3.14-.96-4.88s.32-3.37.96-4.89c.64-1.51,1.53-2.83,2.66-3.97,1.14-1.14,2.47-2.04,4.01-2.71,1.54-.67,3.18-1,4.93-1h15.18v-6.37c0-2.44-.64-4.49-1.92-6.15-1.28-1.66-3.05-2.48-5.32-2.48h-15.62c-1.57,0-2.36-.73-2.36-2.18ZM122.38,152.29v-16.05h-15.18c-1.11,0-2.15.22-3.14.65-.99.44-1.85,1.02-2.57,1.75-.73.73-1.3,1.59-1.7,2.57-.41.99-.61,2.04-.61,3.14s.2,2.14.61,3.1c.41.96.97,1.8,1.7,2.53.72.73,1.58,1.3,2.57,1.7.99.41,2.04.61,3.14.61h15.18Z"/>
      <path class="cls-2" d="M145.59,116.79v37.51c0,.76-.23,1.37-.7,1.83-.47.47-1.02.7-1.66.7-.7,0-1.25-.23-1.66-.7-.41-.47-.61-1.02-.61-1.66v-38.3c0-.99.33-1.86,1-2.62.67-.75,1.55-1.14,2.66-1.14h39.78c1.8,0,3.53.32,5.19.96,1.66.64,3.11,1.58,4.36,2.83,1.25,1.25,2.25,2.78,3.01,4.58.76,1.8,1.14,3.87,1.14,6.19v27.48c0,.64-.23,1.19-.7,1.66-.47.47-1.02.7-1.66.7-.7,0-1.25-.23-1.66-.7-.41-.47-.61-1.02-.61-1.66v-27.48c0-1.51-.25-2.89-.74-4.14-.49-1.25-1.15-2.33-1.96-3.23-.82-.9-1.77-1.6-2.88-2.09-1.1-.49-2.27-.74-3.49-.74h-12.56v37.51c0,.76-.23,1.37-.7,1.83-.46.47-1.02.7-1.66.7-.7,0-1.25-.23-1.66-.7-.41-.47-.61-1.02-.61-1.66v-37.69h-21.63Z"/>
      <path class="cls-3" d="M145.59,116.79v37.51c0,.76-.23,1.37-.7,1.83-.47.47-1.02.7-1.66.7-.7,0-1.25-.23-1.66-.7-.41-.47-.61-1.02-.61-1.66v-38.3c0-.99.33-1.86,1-2.62.67-.75,1.55-1.14,2.66-1.14h39.78c1.8,0,3.53.32,5.19.96,1.66.64,3.11,1.58,4.36,2.83,1.25,1.25,2.25,2.78,3.01,4.58.76,1.8,1.14,3.87,1.14,6.19v27.48c0,.64-.23,1.19-.7,1.66-.47.47-1.02.7-1.66.7-.7,0-1.25-.23-1.66-.7-.41-.47-.61-1.02-.61-1.66v-27.48c0-1.51-.25-2.89-.74-4.14-.49-1.25-1.15-2.33-1.96-3.23-.82-.9-1.77-1.6-2.88-2.09-1.1-.49-2.27-.74-3.49-.74h-12.56v37.51c0,.76-.23,1.37-.7,1.83-.46.47-1.02.7-1.66.7-.7,0-1.25-.23-1.66-.7-.41-.47-.61-1.02-.61-1.66v-37.69h-21.63Z"/>
      <path class="cls-2" d="M214.59,114.61c0-.64.2-1.16.61-1.57.41-.41.93-.61,1.57-.61h15.79c1.74,0,3.34.32,4.8.96,1.45.64,2.7,1.53,3.75,2.66,1.05,1.14,1.86,2.49,2.44,4.06.58,1.57.87,3.26.87,5.06v28.18c0,.99-.34,1.82-1,2.49-.67.67-1.5,1-2.48,1h-16.31c-1.75,0-3.39-.32-4.93-.96-1.54-.64-2.88-1.53-4.01-2.66-1.13-1.13-2.02-2.45-2.66-3.97-.64-1.51-.96-3.14-.96-4.88s.32-3.37.96-4.89c.64-1.51,1.53-2.83,2.66-3.97,1.14-1.14,2.47-2.04,4.01-2.71,1.54-.67,3.18-1,4.93-1h15.18v-6.37c0-2.44-.64-4.49-1.92-6.15-1.28-1.66-3.05-2.48-5.32-2.48h-15.62c-1.57,0-2.36-.73-2.36-2.18M239.8,152.29v-16.05h-15.18c-1.11,0-2.15.22-3.14.65-.99.44-1.85,1.02-2.57,1.75-.73.73-1.3,1.59-1.7,2.57-.41.99-.61,2.04-.61,3.14s.2,2.14.61,3.1c.41.96.97,1.8,1.7,2.53.72.73,1.58,1.3,2.57,1.7.99.41,2.04.61,3.14.61h15.18Z"/>
      <path class="cls-3" d="M214.59,114.61c0-.64.2-1.16.61-1.57.41-.41.93-.61,1.57-.61h15.79c1.74,0,3.34.32,4.8.96,1.45.64,2.7,1.53,3.75,2.66,1.05,1.14,1.86,2.49,2.44,4.06.58,1.57.87,3.26.87,5.06v28.18c0,.99-.34,1.82-1,2.49-.67.67-1.5,1-2.48,1h-16.31c-1.75,0-3.39-.32-4.93-.96-1.54-.64-2.88-1.53-4.01-2.66-1.13-1.13-2.02-2.45-2.66-3.97-.64-1.51-.96-3.14-.96-4.88s.32-3.37.96-4.89c.64-1.51,1.53-2.83,2.66-3.97,1.14-1.14,2.47-2.04,4.01-2.71,1.54-.67,3.18-1,4.93-1h15.18v-6.37c0-2.44-.64-4.49-1.92-6.15-1.28-1.66-3.05-2.48-5.32-2.48h-15.62c-1.57,0-2.36-.73-2.36-2.18ZM239.8,152.29v-16.05h-15.18c-1.11,0-2.15.22-3.14.65-.99.44-1.85,1.02-2.57,1.75-.73.73-1.3,1.59-1.7,2.57-.41.99-.61,2.04-.61,3.14s.2,2.14.61,3.1c.41.96.97,1.8,1.7,2.53.72.73,1.58,1.3,2.57,1.7.99.41,2.04.61,3.14.61h15.18Z"/>
      <path class="cls-2" d="M279.93,152.29c-.41,1.34-1.19,2.43-2.35,3.27-1.16.85-2.5,1.27-4.01,1.27s-2.76-.42-3.93-1.27c-1.17-.84-1.95-1.93-2.36-3.27l-10.29-35.5c-.06-.12-.13-.32-.22-.61-.09-.29-.13-.49-.13-.61,0-.64.22-1.19.65-1.66.44-.46.97-.7,1.61-.7,1.22,0,1.98.55,2.27,1.66l10.55,36.03c.29.93.9,1.39,1.83,1.39,1.1,0,1.74-.43,1.92-1.31l10.64-36.2c.12-.41.38-.77.79-1.09.41-.32.87-.48,1.4-.48.64,0,1.19.23,1.66.7.46.46.7,1.02.7,1.66,0,.35-.03.61-.09.78l-10.64,35.94Z"/>
      <path class="cls-3" d="M279.93,152.29c-.41,1.34-1.19,2.43-2.35,3.27-1.16.85-2.5,1.27-4.01,1.27s-2.76-.42-3.93-1.27c-1.17-.84-1.95-1.93-2.36-3.27l-10.29-35.5c-.06-.12-.13-.32-.22-.61-.09-.29-.13-.49-.13-.61,0-.64.22-1.19.65-1.66.44-.46.97-.7,1.61-.7,1.22,0,1.98.55,2.27,1.66l10.55,36.03c.29.93.9,1.39,1.83,1.39,1.1,0,1.74-.43,1.92-1.31l10.64-36.2c.12-.41.38-.77.79-1.09.41-.32.87-.48,1.4-.48.64,0,1.19.23,1.66.7.46.46.7,1.02.7,1.66,0,.35-.03.61-.09.78l-10.64,35.94Z"/>
      <path class="cls-2" d="M304.62,98.82c0-.7.2-1.27.61-1.7.41-.44.96-.65,1.66-.65.64,0,1.19.22,1.66.65.46.44.7,1,.7,1.7v1.66c0,.64-.23,1.18-.7,1.61-.47.44-1.02.65-1.66.65-.7,0-1.25-.22-1.66-.65-.41-.44-.61-.97-.61-1.61v-1.66ZM304.62,115.57c0-.64.2-1.19.61-1.66.41-.46.96-.7,1.66-.7.64,0,1.19.23,1.66.7.46.46.7,1.02.7,1.66v38.99c0,.64-.23,1.18-.7,1.61-.47.44-1.02.65-1.66.65-.7,0-1.25-.22-1.66-.65-.41-.44-.61-.97-.61-1.61v-38.99Z"/>
      <path class="cls-3" d="M304.62,98.82c0-.7.2-1.27.61-1.7.41-.44.96-.65,1.66-.65.64,0,1.19.22,1.66.65.46.44.7,1,.7,1.7v1.66c0,.64-.23,1.18-.7,1.61-.47.44-1.02.65-1.66.65-.7,0-1.25-.22-1.66-.65-.41-.44-.61-.97-.61-1.61v-1.66ZM304.62,115.57c0-.64.2-1.19.61-1.66.41-.46.96-.7,1.66-.7.64,0,1.19.23,1.66.7.46.46.7,1.02.7,1.66v38.99c0,.64-.23,1.18-.7,1.61-.47.44-1.02.65-1.66.65-.7,0-1.25-.22-1.66-.65-.41-.44-.61-.97-.61-1.61v-38.99Z"/>
      <path class="cls-2" d="M367.01,125.12c0-1.74-.29-3.38-.86-4.87-.58-1.5-1.4-2.82-2.44-3.93-1.04-1.11-2.3-1.99-3.74-2.62-1.44-.63-3.01-.94-4.67-.94h-13.56c-.62,0-1.18.23-1.66.68-.49.46-.75,1.06-.75,1.73,0,.63.26,1.21.75,1.66.48.45,1.09.68,1.79.68h13.43c.98,0,1.9.19,2.72.56.82.37,1.55.91,2.15,1.59.62.7,1.12,1.52,1.48,2.44.36.92.54,1.93.54,3.02,0,2.14-.61,3.81-1.86,5.11-1.25,1.29-2.76,1.91-4.63,1.91h-8.78c-.61,0-1.19.24-1.66.68-.49.46-.75,1.06-.75,1.73,0,.63.25,1.2.73,1.68.48.48,1.1.73,1.81.73h8.25c.98,0,1.88.21,2.69.61.83.41,1.56.98,2.17,1.69.62.72,1.11,1.59,1.47,2.59.36,1.01.55,2.14.55,3.36s-.18,2.23-.54,3.15c-.36.91-.85,1.71-1.46,2.36-.6.64-1.34,1.15-2.18,1.5-.85.36-1.76.54-2.71.54h-13.56c-.63,0-1.2.25-1.68.73-.48.48-.73,1.05-.73,1.68,0,.68.25,1.26.75,1.73.48.45,1.04.68,1.66.68h13.56c1.66,0,3.22-.3,4.63-.91,1.41-.6,2.66-1.45,3.7-2.51,1.04-1.07,1.88-2.38,2.48-3.9.6-1.52.9-3.22.9-5.04,0-2.46-.46-4.67-1.38-6.59-.76-1.6-1.8-2.93-3.1-3.97,2.97-2.05,4.48-5.25,4.48-9.54M440.53,134.66c2.97-2.05,4.48-5.25,4.48-9.54,0-1.74-.29-3.38-.87-4.87-.58-1.5-1.4-2.82-2.44-3.93-1.04-1.11-2.3-1.99-3.74-2.62-1.44-.63-3.01-.94-4.67-.94h-13.56c-.61,0-1.19.24-1.66.68-.49.46-.75,1.06-.75,1.73,0,.63.26,1.21.75,1.66.48.45,1.08.68,1.79.68h13.42c.99,0,1.9.19,2.72.56.82.37,1.55.91,2.15,1.59.62.7,1.12,1.52,1.48,2.44.36.92.54,1.94.54,3.02,0,2.14-.61,3.81-1.86,5.11-1.25,1.29-2.76,1.91-4.63,1.91h-8.78c-.62,0-1.18.23-1.66.68-.49.46-.75,1.05-.75,1.73,0,.63.25,1.2.73,1.68.49.49,1.09.73,1.81.73h8.25c.98,0,1.88.21,2.7.61.83.41,1.56.98,2.17,1.69.62.72,1.11,1.59,1.47,2.59.36,1.01.55,2.14.55,3.36s-.18,2.23-.54,3.15c-.36.91-.85,1.71-1.46,2.36-.6.64-1.34,1.15-2.18,1.5-.85.36-1.76.54-2.71.54h-13.56c-.62,0-1.2.25-1.68.73-.49.48-.73,1.05-.73,1.68,0,.68.25,1.27.75,1.73.47.45,1.05.68,1.66.68h13.56c1.66,0,3.22-.3,4.63-.91,1.41-.6,2.66-1.45,3.7-2.51,1.04-1.07,1.88-2.38,2.48-3.9.6-1.52.9-3.22.9-5.04,0-2.45-.46-4.67-1.38-6.59-.76-1.6-1.8-2.93-3.1-3.97M393.48,112.75c-2.43,0-4.64.34-6.59,1.02-1.97.69-3.69,1.74-5.11,3.14-1.43,1.4-2.53,3.21-3.28,5.38-.74,2.14-1.12,4.69-1.12,7.6v11.92c0,2.69.38,5.08,1.13,7.09.75,2.03,1.86,3.77,3.28,5.14,1.42,1.38,3.15,2.42,5.14,3.11,1.97.68,4.17,1.02,6.55,1.02s4.63-.33,6.58-.99c1.97-.66,3.69-1.7,5.11-3.08,1.42-1.38,2.53-3.12,3.28-5.18.75-2.03,1.12-4.43,1.12-7.12v-11.92c0-5.71-1.44-10.05-4.27-12.88-2.83-2.83-6.81-4.27-11.83-4.27M404.63,141.82c0,3.84-1.01,6.75-2.99,8.66-1.99,1.91-4.74,2.88-8.15,2.88s-6.11-.97-8.13-2.88c-2-1.9-3.02-4.82-3.02-8.66v-11.92c0-4.2.96-7.36,2.85-9.37,1.88-2,4.67-3.02,8.29-3.02s6.46,1.04,8.32,3.11c1.88,2.08,2.83,5.21,2.83,9.29v11.92Z"/>
      <path class="cls-3" d="M367.01,125.12c0-1.74-.29-3.38-.86-4.87-.58-1.5-1.4-2.82-2.44-3.93-1.04-1.11-2.3-1.99-3.74-2.62-1.44-.63-3.01-.94-4.67-.94h-13.56c-.62,0-1.18.23-1.66.68-.49.46-.75,1.06-.75,1.73,0,.63.26,1.21.75,1.66.48.45,1.09.68,1.79.68h13.43c.98,0,1.9.19,2.72.56.82.37,1.55.91,2.15,1.59.62.7,1.12,1.52,1.48,2.44.36.92.54,1.93.54,3.02,0,2.14-.61,3.81-1.86,5.11-1.25,1.29-2.76,1.91-4.63,1.91h-8.78c-.61,0-1.19.24-1.66.68-.49.46-.75,1.06-.75,1.73,0,.63.25,1.2.73,1.68.48.48,1.1.73,1.81.73h8.25c.98,0,1.88.21,2.69.61.83.41,1.56.98,2.17,1.69.62.72,1.11,1.59,1.47,2.59.36,1.01.55,2.14.55,3.36s-.18,2.23-.54,3.15c-.36.91-.85,1.71-1.46,2.36-.6.64-1.34,1.15-2.18,1.5-.85.36-1.76.54-2.71.54h-13.56c-.63,0-1.2.25-1.68.73-.48.48-.73,1.05-.73,1.68,0,.68.25,1.26.75,1.73.48.45,1.04.68,1.66.68h13.56c1.66,0,3.22-.3,4.63-.91,1.41-.6,2.66-1.45,3.7-2.51,1.04-1.07,1.88-2.38,2.48-3.9.6-1.52.9-3.22.9-5.04,0-2.46-.46-4.67-1.38-6.59-.76-1.6-1.8-2.93-3.1-3.97,2.97-2.05,4.48-5.25,4.48-9.54ZM440.53,134.66c2.97-2.05,4.48-5.25,4.48-9.54,0-1.74-.29-3.38-.87-4.87-.58-1.5-1.4-2.82-2.44-3.93-1.04-1.11-2.3-1.99-3.74-2.62-1.44-.63-3.01-.94-4.67-.94h-13.56c-.61,0-1.19.24-1.66.68-.49.46-.75,1.06-.75,1.73,0,.63.26,1.21.75,1.66.48.45,1.08.68,1.79.68h13.42c.99,0,1.9.19,2.72.56.82.37,1.55.91,2.15,1.59.62.7,1.12,1.52,1.48,2.44.36.92.54,1.94.54,3.02,0,2.14-.61,3.81-1.86,5.11-1.25,1.29-2.76,1.91-4.63,1.91h-8.78c-.62,0-1.18.23-1.66.68-.49.46-.75,1.05-.75,1.73,0,.63.25,1.2.73,1.68.49.49,1.09.73,1.81.73h8.25c.98,0,1.88.21,2.7.61.83.41,1.56.98,2.17,1.69.62.72,1.11,1.59,1.47,2.59.36,1.01.55,2.14.55,3.36s-.18,2.23-.54,3.15c-.36.91-.85,1.71-1.46,2.36-.6.64-1.34,1.15-2.18,1.5-.85.36-1.76.54-2.71.54h-13.56c-.62,0-1.2.25-1.68.73-.49.48-.73,1.05-.73,1.68,0,.68.25,1.27.75,1.73.47.45,1.05.68,1.66.68h13.56c1.66,0,3.22-.3,4.63-.91,1.41-.6,2.66-1.45,3.7-2.51,1.04-1.07,1.88-2.38,2.48-3.9.6-1.52.9-3.22.9-5.04,0-2.45-.46-4.67-1.38-6.59-.76-1.6-1.8-2.93-3.1-3.97ZM393.48,112.75c-2.43,0-4.64.34-6.59,1.02-1.97.69-3.69,1.74-5.11,3.14-1.43,1.4-2.53,3.21-3.28,5.38-.74,2.14-1.12,4.69-1.12,7.6v11.92c0,2.69.38,5.08,1.13,7.09.75,2.03,1.86,3.77,3.28,5.14,1.42,1.38,3.15,2.42,5.14,3.11,1.97.68,4.17,1.02,6.55,1.02s4.63-.33,6.58-.99c1.97-.66,3.69-1.7,5.11-3.08,1.42-1.38,2.53-3.12,3.28-5.18.75-2.03,1.12-4.43,1.12-7.12v-11.92c0-5.71-1.44-10.05-4.27-12.88-2.83-2.83-6.81-4.27-11.83-4.27ZM404.63,141.82c0,3.84-1.01,6.75-2.99,8.66-1.99,1.91-4.74,2.88-8.15,2.88s-6.11-.97-8.13-2.88c-2-1.9-3.02-4.82-3.02-8.66v-11.92c0-4.2.96-7.36,2.85-9.37,1.88-2,4.67-3.02,8.29-3.02s6.46,1.04,8.32,3.11c1.88,2.08,2.83,5.21,2.83,9.29v11.92Z"/>
      <polygon class="cls-1" points="54.93 259.23 58.61 259.23 58.61 283.18 72.25 283.18 72.25 286.42 54.93 286.42 54.93 259.23"/>
      <rect class="cls-1" x="95.78" y="259.23" width="3.72" height="27.18"/>
      <polygon class="cls-1" points="126.58 259.23 134.39 282.38 142.1 259.23 146.23 259.23 136.31 286.42 132.41 286.42 122.51 259.23 126.58 259.23"/>
      <polygon class="cls-1" points="169 259.23 188.72 259.23 188.72 262.57 172.59 262.57 172.59 270.82 187.5 270.82 187.5 273.96 172.59 273.96 172.59 283.18 189 283.18 189 286.42 169 286.42 169 259.23"/>
      <path class="cls-1" d="M260.44,260.01c2.66,1.42,4.29,3.9,4.89,7.46h-3.65c-.43-1.99-1.33-3.43-2.7-4.34-1.36-.91-3.08-1.36-5.16-1.36-2.46,0-4.54.94-6.22,2.83-1.69,1.89-2.53,4.7-2.53,8.44,0,3.23.7,5.86,2.09,7.89,1.39,2.03,3.65,3.04,6.8,3.04,2.41,0,4.4-.71,5.97-2.14,1.58-1.43,2.39-3.73,2.42-6.91h-8.51v-3.05h11.93v14.54h-2.37l-.89-3.5c-1.22,1.37-2.31,2.32-3.26,2.85-1.59.91-3.61,1.37-6.06,1.37-3.17,0-5.89-1.04-8.17-3.13-2.49-2.62-3.73-6.2-3.73-10.77s1.21-8.17,3.64-10.86c2.31-2.57,5.3-3.85,8.97-3.85,2.52,0,4.69.49,6.53,1.48"/>
      <polygon class="cls-1" points="290.77 259.23 294.45 259.23 294.45 283.18 308.09 283.18 308.09 286.42 290.77 286.42 290.77 259.23"/>
      <path class="cls-1" d="M353.18,263.12c1.8,2.4,2.7,5.48,2.7,9.23,0,4.06-1.03,7.43-3.09,10.12-2.42,3.15-5.87,4.74-10.34,4.74-4.18,0-7.47-1.38-9.86-4.15-2.14-2.66-3.2-6.03-3.2-10.1,0-3.67.91-6.82,2.74-9.44,2.34-3.36,5.81-5.03,10.4-5.03s8.35,1.54,10.66,4.63M349.93,280.45c1.45-2.33,2.17-5,2.17-8.03,0-3.2-.83-5.77-2.5-7.72-1.67-1.95-3.96-2.93-6.86-2.93s-5.1.97-6.88,2.9c-1.78,1.93-2.67,4.78-2.67,8.54,0,3.01.76,5.55,2.28,7.62,1.53,2.07,3.99,3.1,7.41,3.1s5.59-1.17,7.04-3.49"/>
      <path class="cls-1" d="M379.12,259.23h11.75c3.2,0,5.48.95,6.83,2.85.8,1.12,1.19,2.42,1.19,3.89,0,1.71-.49,3.12-1.46,4.22-.5.58-1.23,1.11-2.18,1.59,1.39.53,2.44,1.13,3.13,1.79,1.22,1.19,1.83,2.82,1.83,4.9,0,1.75-.55,3.34-1.66,4.76-1.65,2.12-4.27,3.18-7.87,3.18h-11.56v-27.18ZM389.5,270.72c1.57,0,2.79-.21,3.66-.65,1.37-.68,2.06-1.9,2.06-3.66s-.73-2.97-2.19-3.59c-.82-.35-2.04-.52-3.66-.52h-6.64v8.42h6.77ZM390.74,283.27c2.28,0,3.9-.65,4.87-1.96.61-.82.91-1.82.91-3,0-1.97-.89-3.32-2.67-4.03-.94-.38-2.2-.57-3.75-.57h-7.38v9.56h8.01Z"/>
      <path class="cls-1" d="M431.36,259.23h4.16l9.86,27.18h-4.03l-2.84-8.14h-10.66l-2.95,8.14h-3.78l10.24-27.18ZM437.47,275.28l-4.18-12.01-4.35,12.01h8.53Z"/>
      <polygon class="cls-1" points="467.66 259.23 471.34 259.23 471.34 283.18 484.97 283.18 484.97 286.42 467.66 286.42 467.66 259.23"/>
      <polygon class="cls-1" points="519.96 20.93 519.96 27.33 533.44 27.33 533.44 212.36 6.41 212.36 6.41 27.33 19.89 27.33 19.89 20.93 0 20.93 0 218.76 539.85 218.76 539.85 20.93 519.96 20.93"/>
      <polygon class="cls-1" points="46.2 .63 79.61 .63 79.61 9.3 55.88 9.3 55.88 18.29 76.76 18.29 76.76 26.96 55.88 26.96 55.88 36.26 79.92 36.26 79.92 44.93 46.2 44.93 46.2 .63"/>
      <polygon class="cls-1" points="94.28 .63 105.04 .63 116.62 31.83 128.2 .63 138.71 .63 120.8 45.25 112.19 45.25 94.28 .63"/>
      <polygon class="cls-1" points="155.02 .63 188.43 .63 188.43 9.3 164.7 9.3 164.7 18.29 185.59 18.29 185.59 26.96 164.7 26.96 164.7 36.26 188.75 36.26 188.75 44.93 155.02 44.93 155.02 .63"/>
      <path class="cls-1" d="M206.9.63h20.25c5.63,0,10,1.58,12.91,4.49,2.47,2.47,3.8,5.95,3.8,10.12v.13c0,7.15-3.86,11.64-9.49,13.73l10.82,15.82h-11.39l-9.49-14.17h-7.66v14.17h-9.75V.63ZM226.52,22.15c4.75,0,7.47-2.53,7.47-6.26v-.13c0-4.18-2.91-6.33-7.66-6.33h-9.68v12.72h9.87Z"/>
      <path class="cls-1" d="M259.1,38.47l5.76-6.9c3.99,3.29,8.16,5.38,13.23,5.38,3.98,0,6.39-1.58,6.39-4.18v-.13c0-2.47-1.52-3.73-8.92-5.63-8.92-2.28-14.68-4.75-14.68-13.54v-.13c0-8.04,6.45-13.35,15.5-13.35,6.45,0,11.96,2.02,16.45,5.63l-5.06,7.34c-3.92-2.72-7.78-4.37-11.52-4.37s-5.7,1.71-5.7,3.86v.13c0,2.91,1.9,3.86,9.56,5.82,8.98,2.34,14.05,5.57,14.05,13.29v.13c0,8.8-6.71,13.73-16.27,13.73-6.71,0-13.48-2.34-18.79-7.09"/>
      <polygon class="cls-1" points="312.12 .63 321.87 .63 321.87 18.16 339.84 18.16 339.84 .63 349.59 .63 349.59 44.93 339.84 44.93 339.84 27.15 321.87 27.15 321.87 44.93 312.12 44.93 312.12 .63"/>
      <rect class="cls-1" x="370.14" y=".63" width="9.75" height="44.3"/>
      <polygon class="cls-1" points="400.45 .63 409.43 .63 430.19 27.91 430.19 .63 439.81 .63 439.81 44.93 431.52 44.93 410.07 16.77 410.07 44.93 400.45 44.93 400.45 .63"/>
      <polygon class="cls-1" points="459.92 .63 493.34 .63 493.34 9.3 469.61 9.3 469.61 18.29 490.49 18.29 490.49 26.96 469.61 26.96 469.61 36.26 493.65 36.26 493.65 44.93 459.92 44.93 459.92 .63"/>
    </g>
  </g>
</svg>